<svg width="15" height="14" viewBox="0 0 15 14" fill="none" xmlns="http://www.w3.org/2000/svg">
<path d="M4.125 1.9375V1" stroke="#2F89C0" stroke-width="1.512" stroke-linecap="round"/>
<path d="M10.375 1.9375V1" stroke="#2F89C0" stroke-width="1.512" stroke-linecap="round"/>
<path d="M10.0625 10.6875C10.5803 10.6875 11 10.2678 11 9.75C11 9.23223 10.5803 8.8125 10.0625 8.8125C9.54473 8.8125 9.125 9.23223 9.125 9.75C9.125 10.2678 9.54473 10.6875 10.0625 10.6875Z" stroke="#2F89C0" stroke-width="1.512"/>
<path d="M13.1875 5.0625H10.1406H6.46875M1 5.0625H3.42188" stroke="#2F89C0" stroke-width="1.512" stroke-linecap="round"/>
<path d="M8.5 13.1875H6C3.64298 13.1875 2.46447 13.1875 1.73223 12.4552C1 11.7231 1 10.5445 1 8.1875V6.9375C1 4.58048 1 3.40197 1.73223 2.66973C2.46447 1.9375 3.64298 1.9375 6 1.9375H8.5C10.857 1.9375 12.0356 1.9375 12.7677 2.66973C13.5 3.40197 13.5 4.58048 13.5 6.9375V8.1875C13.5 10.5445 13.5 11.7231 12.7677 12.4552C12.3595 12.8635 11.8126 13.0441 11 13.1241" stroke="#2F89C0" stroke-width="1.512" stroke-linecap="round"/>
</svg>
