<svg width="24" height="24" viewBox="0 0 24 24" fill="none" xmlns="http://www.w3.org/2000/svg">
<g clip-path="url(#clip0_81_384)">
<path fill-rule="evenodd" clip-rule="evenodd" d="M2.92647 0.502102C2.25699 -0.167367 1.17157 -0.167367 0.502102 0.502102C-0.167367 1.17157 -0.167367 2.25699 0.502102 2.92647L9.57564 12L0.502102 21.0735C-0.167367 21.743 -0.167367 22.8285 0.502102 23.4979C1.17157 24.1673 2.25699 24.1673 2.92647 23.4979L12 14.4244L21.0735 23.4979C21.743 24.1673 22.8285 24.1673 23.4979 23.4979C24.1673 22.8285 24.1673 21.743 23.4979 21.0735L14.4244 12L23.4979 2.92647C24.1673 2.25699 24.1673 1.17157 23.4979 0.502102C22.8285 -0.167367 21.743 -0.167367 21.0735 0.502102L12 9.57564L2.92647 0.502102Z" fill="white"/>
</g>
<defs>
<clipPath id="clip0_81_384">
<rect width="24" height="24" fill="white"/>
</clipPath>
</defs>
</svg>
