<svg width="70" height="126" viewBox="0 0 70 126" fill="none" xmlns="http://www.w3.org/2000/svg">
<path d="M0 0H70V115.6C70 121.123 65.5229 125.6 60 125.6H10C4.47715 125.6 0 121.123 0 115.6V0Z" fill="#FF2929"/>
<g clip-path="url(#clip0_92_217)">
<path fill-rule="evenodd" clip-rule="evenodd" d="M25.9265 53.5021C25.257 52.8326 24.1716 52.8326 23.5021 53.5021C22.8326 54.1716 22.8326 55.257 23.5021 55.9265L32.5756 65L23.5021 74.0735C22.8326 74.743 22.8326 75.8285 23.5021 76.4979C24.1716 77.1673 25.257 77.1673 25.9265 76.4979L35 67.4244L44.0735 76.4979C44.743 77.1673 45.8285 77.1673 46.4979 76.4979C47.1673 75.8285 47.1673 74.743 46.4979 74.0735L37.4244 65L46.4979 55.9265C47.1673 55.257 47.1673 54.1716 46.4979 53.5021C45.8285 52.8326 44.743 52.8326 44.0735 53.5021L35 62.5756L25.9265 53.5021Z" fill="white"/>
</g>
<defs>
<clipPath id="clip0_92_217">
<rect width="24" height="24" fill="white" transform="translate(23 53)"/>
</clipPath>
</defs>
</svg>
