<svg width="25" height="25" viewBox="0 0 25 25" fill="none" xmlns="http://www.w3.org/2000/svg">
<g clip-path="url(#clip0_224_207)">
<path d="M12.5 23.8839C18.7871 23.8839 23.8839 18.7871 23.8839 12.5C23.8839 6.21282 18.7871 1.11607 12.5 1.11607C6.21282 1.11607 1.11607 6.21282 1.11607 12.5C1.11607 18.7871 6.21282 23.8839 12.5 23.8839Z" fill="#79EE8D"/>
<path fill-rule="evenodd" clip-rule="evenodd" d="M15.1786 2.58502V4.91084C15.1786 5.97645 14.7553 6.99839 14.0018 7.75189C13.2483 8.50539 12.2263 8.9287 11.1607 8.9287C10.5687 8.9287 10.001 9.16386 9.58236 9.58246C9.16375 10.0011 8.92857 10.5688 8.92857 11.1608V13.8394C8.92857 14.905 8.50527 15.927 7.75177 16.6805C6.99827 17.434 5.97632 17.8573 4.91071 17.8573H3.7388C5.54373 20.8027 8.79237 22.7679 12.5 22.7679C14.8518 22.7679 17.0189 21.9771 18.75 20.6471V20.0893C18.75 19.7341 18.6089 19.3934 18.3577 19.1423C18.1066 18.8911 17.7659 18.75 17.4107 18.75C16.3451 18.75 15.3232 18.3266 14.5697 17.5732C13.8162 16.8197 13.3929 15.7977 13.3929 14.7321C13.3929 13.6665 13.8162 12.6446 14.5697 11.8911C15.3232 11.1376 16.3451 10.7143 17.4107 10.7143H21.2193C21.6975 10.7169 22.1727 10.7669 22.638 10.8625C21.9959 6.85661 19.0368 3.6248 15.1786 2.58502ZM24.9993 12.3627C25.0009 12.3267 25.0004 12.2907 24.9977 12.2549C24.8805 6.16489 20.408 1.14137 14.5656 0.169866C14.4776 0.140832 14.3835 0.125122 14.2857 0.125122L14.2758 0.125176C13.6957 0.0426773 13.1029 0 12.5 0C5.59645 0 0 5.59645 0 12.5C0 19.4036 5.59645 25 12.5 25C19.4036 25 25 19.4036 25 12.5C25 12.4542 24.9998 12.4084 24.9993 12.3627Z" fill="#0C098C"/>
</g>
<defs>
<clipPath id="clip0_224_207">
<rect width="25" height="25" fill="white"/>
</clipPath>
</defs>
</svg>
