<svg width="70" height="126" viewBox="0 0 70 126" fill="none" xmlns="http://www.w3.org/2000/svg">
<path d="M0 10C0 4.47715 4.47715 0 10 0H60C65.5229 0 70 4.47715 70 10V126H0V10Z" fill="#FF8000"/>
<g clip-path="url(#clip0_92_218)">
<path d="M34 55H27C26.4696 55 25.9609 55.2107 25.5858 55.5858C25.2107 55.9609 25 56.4696 25 57V71C25 71.5304 25.2107 72.0391 25.5858 72.4142C25.9609 72.7893 26.4696 73 27 73H41C41.5304 73 42.0391 72.7893 42.4142 72.4142C42.7893 72.0391 43 71.5304 43 71V64M41.5 53.5C41.8978 53.1022 42.4374 52.8787 43 52.8787C43.5626 52.8787 44.1022 53.1022 44.5 53.5C44.8978 53.8978 45.1213 54.4374 45.1213 55C45.1213 55.5626 44.8978 56.1022 44.5 56.5L35 66L31 67L32 63L41.5 53.5Z" stroke="#F5F5F5" stroke-width="2.5" stroke-linecap="round" stroke-linejoin="round"/>
</g>
<defs>
<clipPath id="clip0_92_218">
<rect width="24" height="24" fill="white" transform="translate(23 51)"/>
</clipPath>
</defs>
</svg>
