<svg width="30" height="30" viewBox="0 0 30 30" fill="none" xmlns="http://www.w3.org/2000/svg">
<path d="M13.75 2.5H11.25C5 2.5 2.5 5 2.5 11.25V18.75C2.5 25 5 27.5 11.25 27.5H18.75C25 27.5 27.5 25 27.5 18.75V16.25M18.6375 5.1875C19.475 8.175 21.8125 10.5125 24.8125 11.3625M20.05 3.775L10.2 13.625C9.825 14 9.45 14.7375 9.375 15.275L8.8375 19.0375C8.6375 20.4 9.6 21.35 10.9625 21.1625L14.725 20.625C15.25 20.55 15.9875 20.175 16.375 19.8L26.225 9.95C27.925 8.25 28.725 6.275 26.225 3.775C23.725 1.275 21.75 2.075 20.05 3.775Z" stroke="white" stroke-width="1.5" stroke-miterlimit="10" stroke-linecap="round" stroke-linejoin="round"/>
</svg>
