<svg width="28" height="28" viewBox="0 0 28 28" fill="none" xmlns="http://www.w3.org/2000/svg">
<path d="M14 5.42859H26" stroke="white" stroke-width="3.696" stroke-linecap="round"/>
<path d="M2 5.42859H8" stroke="white" stroke-width="3.696" stroke-linecap="round"/>
<path d="M21.5 22.5714H26" stroke="white" stroke-width="3.696" stroke-linecap="round"/>
<path d="M2 22.5714H14" stroke="white" stroke-width="3.696" stroke-linecap="round"/>
<path d="M8 5.42857C8 7.32212 9.34315 8.85714 11 8.85714C12.6569 8.85714 14 7.32212 14 5.42857C14 3.53502 12.6569 2 11 2C9.34315 2 8 3.53502 8 5.42857Z" stroke="white" stroke-width="3.696" stroke-linecap="round"/>
<path d="M15.5 22.5714C15.5 24.4649 16.8431 26 18.5 26C20.1569 26 21.5 24.4649 21.5 22.5714C21.5 20.6778 20.1569 19.1428 18.5 19.1428C16.8431 19.1428 15.5 20.6778 15.5 22.5714Z" stroke="white" stroke-width="3.696" stroke-linecap="round"/>
</svg>
