<svg width="13" height="13" viewBox="0 0 13 13" fill="none" xmlns="http://www.w3.org/2000/svg">
<path d="M6.60045 12.2875C6.84892 12.2875 7.05045 12.086 7.05045 11.8375V1.05C7.05045 0.801533 6.84892 0.6 6.60045 0.6H1.05C0.801533 0.6 0.6 0.801533 0.6 1.05V11.8375C0.6 12.086 0.801533 12.2875 1.05 12.2875H6.60045ZM6.60045 12.8875H1.05C0.470171 12.8875 0 12.4174 0 11.8375V1.05C0 0.470171 0.470171 0 1.05 0H6.60045C7.18028 0 7.65045 0.470171 7.65045 1.05V11.8375C7.65045 12.4174 7.18028 12.8875 6.60045 12.8875ZM12.2931 2.95519V10.2833C12.2931 11.0071 11.7064 11.5938 10.9826 11.5938C10.2583 11.5938 9.67157 11.0071 9.67157 10.2833C9.67157 10.1176 9.53726 9.98329 9.37157 9.98329C9.20588 9.98329 9.07157 10.1176 9.07157 10.2833C9.07157 11.3385 9.92694 12.1938 10.9821 12.1938C12.0378 12.1938 12.8931 11.3385 12.8931 10.2833V2.95519C12.8931 2.7895 12.7588 2.65519 12.5931 2.65519C12.4274 2.65519 12.2931 2.7895 12.2931 2.95519Z" fill="#2F89C0" stroke="#2F89C0" stroke-width="0.00084"/>
<path d="M9.67153 10.3676V4.35017C9.67153 4.18448 9.53722 4.05017 9.37153 4.05017C9.20584 4.05017 9.07153 4.18448 9.07153 4.35017V10.3676C9.07153 10.5333 9.20584 10.6676 9.37153 10.6676C9.53722 10.6676 9.67153 10.5333 9.67153 10.3676Z" fill="#2F89C0" stroke="#2F89C0" stroke-width="0.00084"/>
<path d="M9.67187 4.30426V3.7989C9.67187 3.07506 9.08516 2.48835 8.36132 2.48835C7.63747 2.48835 7.05062 3.07508 7.05062 3.7989V4.30426C7.05062 4.46994 7.18494 4.60426 7.35062 4.60426C7.51631 4.60426 7.65062 4.46994 7.65062 4.30426V3.7989C7.65062 3.40648 7.96882 3.08835 8.36132 3.08835C8.75378 3.08835 9.07187 3.40644 9.07187 3.7989V4.30426C9.07187 4.46994 9.20619 4.60426 9.37187 4.60426C9.53756 4.60426 9.67187 4.46994 9.67187 4.30426ZM12.7562 2.68513L10.1969 0.125833C10.0797 0.00867431 9.8898 0.00867431 9.77264 0.125833C9.65548 0.242991 9.65548 0.432937 9.77264 0.550095L12.3319 3.1094C12.4491 3.22656 12.639 3.22656 12.7562 3.1094C12.8734 2.99224 12.8734 2.80229 12.7562 2.68513ZM5.37837 3.07389C5.46124 3.07389 5.52837 3.00676 5.52837 2.92389V2.24889C5.52837 2.16602 5.46124 2.09889 5.37837 2.09889H2.25388C2.23418 2.09889 2.21467 2.10276 2.19647 2.1103C2.17827 2.11784 2.16173 2.12888 2.1478 2.14281C2.13387 2.15674 2.12282 2.17328 2.11529 2.19148C2.10775 2.20968 2.10387 2.22919 2.10388 2.24889V2.92389C2.10388 3.00676 2.17101 3.07389 2.25388 3.07389H5.37837ZM5.37837 3.67389H2.25388C1.83965 3.67389 1.50388 3.33812 1.50388 2.92389V2.24889C1.50388 1.83466 1.83965 1.49889 2.25388 1.49889H5.37837C5.7926 1.49889 6.12837 1.83466 6.12837 2.24889V2.92389C6.12837 3.33812 5.7926 3.67389 5.37837 3.67389Z" fill="#2F89C0" stroke="#2F89C0" stroke-width="0.00084"/>
<path d="M12.558 4.20636H11.8406C11.6749 4.20636 11.5406 4.07202 11.5406 3.90636V1.74922C11.5406 1.58353 11.4063 1.44922 11.2406 1.44922C11.0749 1.44922 10.9406 1.58353 10.9406 1.74922V3.90636C10.9406 4.4034 11.3435 4.80636 11.8406 4.80636H12.558C12.7237 4.80636 12.858 4.67205 12.858 4.50636C12.858 4.34067 12.7237 4.20636 12.558 4.20636Z" fill="#2F89C0" stroke="#2F89C0" stroke-width="0.00084"/>
</svg>
