<svg width="24" height="24" viewBox="0 0 24 24" fill="none" xmlns="http://www.w3.org/2000/svg">
<path d="M22.416 13.704V13.6913C21.36 12.5077 19.8841 11.7822 18.2401 11.7822C15.0602 11.7822 12.4802 14.5185 12.4802 17.8911C12.4802 19.4565 13.0442 20.8819 13.9562 21.9637C15.0122 23.2109 16.5361 24 18.2401 24C21.42 24 24 21.2637 24 17.8911C24 16.2748 23.4 14.7985 22.416 13.704ZM20.3881 18.922H19.1401V20.3092C19.1401 20.831 18.7321 21.2637 18.2401 21.2637C17.7481 21.2637 17.3401 20.831 17.3401 20.3092V18.922H16.0922C15.5882 18.922 15.1922 18.502 15.1922 17.9675C15.1922 17.4457 15.5762 17.0257 16.0802 17.013H17.3401V15.7403C17.3401 15.7148 17.3401 15.6894 17.3521 15.6639C17.3761 15.1803 17.7721 14.7858 18.2401 14.7858C18.7201 14.7858 19.1161 15.193 19.1401 15.7021V17.013H20.3881C20.8921 17.013 21.288 17.4457 21.288 17.9675C21.288 18.502 20.8921 18.922 20.3881 18.922Z" fill="#292D32" stroke="black" stroke-width="0.00089"/>
<path d="M23.9995 7.1143C23.9995 8.62879 23.7715 10.0287 23.3755 11.3269C23.3035 11.5941 23.0035 11.6705 22.7875 11.505C21.4796 10.4742 19.8836 9.92691 18.2396 9.92691C14.0757 9.92691 10.6798 13.5286 10.6798 17.9448C10.6798 19.3193 11.0158 20.6684 11.6518 21.8647C11.8438 22.221 11.6158 22.6792 11.2558 22.5392C8.36383 21.4956 2.51995 17.6903 0.623987 11.3269C0.227995 10.0287 0 8.62879 0 7.1143C0 3.1817 2.98794 0 6.67187 0C8.84382 0 10.7878 1.11995 11.9998 2.83807C13.2117 1.11995 15.1557 0 17.3277 0C21.0116 -1.27268e-05 23.9995 3.1817 23.9995 7.1143Z" fill="#292D32" stroke="black" stroke-width="0.00089"/>
</svg>
