<svg width="28" height="28" viewBox="0 0 28 28" fill="none" xmlns="http://www.w3.org/2000/svg">
<path d="M20.24 26C23.4212 26 26 23.2711 26 19.9048C26 16.5385 23.4212 13.8096 20.24 13.8096C17.0588 13.8096 14.48 16.5385 14.48 19.9048C14.48 23.2711 17.0588 26 20.24 26Z" stroke="#292D32" stroke-width="2.73" stroke-miterlimit="10" stroke-linecap="round" stroke-linejoin="round"/>
<path d="M22.388 19.981H18.092" stroke="#292D32" stroke-width="2.73" stroke-miterlimit="10" stroke-linecap="round" stroke-linejoin="round"/>
<path d="M20.24 17.7588V22.3175" stroke="#292D32" stroke-width="2.73" stroke-miterlimit="10" stroke-linecap="round" stroke-linejoin="round"/>
<path d="M26 9.09843C26 11.6 25.388 13.8095 24.428 15.727C23.372 14.546 21.884 13.8095 20.24 13.8095C17.06 13.8095 14.48 16.5397 14.48 19.9048C14.48 21.4667 15.044 22.8889 15.956 23.9683C15.512 24.1841 15.104 24.3619 14.744 24.4889C14.336 24.6413 13.664 24.6413 13.256 24.4889C9.776 23.2318 2 17.9873 2 9.09843C2 5.17462 4.988 2 8.672 2C10.844 2 12.788 3.11751 14 4.83179C15.212 3.11751 17.156 2 19.328 2C23.012 2 26 5.17462 26 9.09843Z" stroke="#292D32" stroke-width="2.73" stroke-linecap="round" stroke-linejoin="round"/>
</svg>
