<svg width="12" height="12" viewBox="0 0 12 12" fill="none" xmlns="http://www.w3.org/2000/svg">
<path d="M10.84 8.48L9.27496 4.825C8.74496 3.585 7.76996 3.535 7.11496 4.715L6.16996 6.42C5.68996 7.285 4.79496 7.36 4.17496 6.585L4.06496 6.445C3.41996 5.635 2.50996 5.735 2.04496 6.66L1.18496 8.385C0.579963 9.585 1.45496 11 2.79496 11H9.17496C10.475 11 11.35 9.675 10.84 8.48Z" stroke="#292D32" stroke-width="1.5" stroke-linecap="round" stroke-linejoin="round"/>
<path d="M3.48496 4C4.31339 4 4.98496 3.32843 4.98496 2.5C4.98496 1.67157 4.31339 1 3.48496 1C2.65654 1 1.98496 1.67157 1.98496 2.5C1.98496 3.32843 2.65654 4 3.48496 4Z" stroke="#292D32" stroke-width="1.5" stroke-linecap="round" stroke-linejoin="round"/>
</svg>
