<svg width="350" height="82" viewBox="0 0 350 82" fill="none" xmlns="http://www.w3.org/2000/svg">
<path d="M34.9723 42L50.7163 0.783997H58.5243L74.1403 42H66.9723L62.8763 31.376H46.3003L42.2043 42H34.9723ZM47.3883 26H61.7243L54.5563 7.12L47.3883 26ZM89.6948 42.64C86.0681 42.64 83.2734 41.6373 81.3108 39.632C79.3908 37.6267 78.4308 34.6827 78.4308 30.8V11.664H85.4068V30.8C85.4068 33.0613 85.9614 34.7253 87.0708 35.792C88.1801 36.8587 89.8868 37.392 92.1908 37.392C93.8974 37.392 95.4761 37.072 96.9268 36.432C98.3774 35.792 99.6361 34.9387 100.703 33.872V11.664H107.615V42H101.279L100.959 38.864C99.5934 39.9307 97.9721 40.8267 96.0948 41.552C94.2174 42.2773 92.0841 42.64 89.6948 42.64ZM127.335 42.64C124.092 42.64 121.66 41.7867 120.039 40.08C118.46 38.3307 117.671 35.9627 117.671 32.976V17.104H113.191V11.664H117.671V4.688L124.583 2.576V11.664H132.647L132.199 17.104H124.583V32.592C124.583 34.3413 124.988 35.5787 125.799 36.304C126.609 36.9867 127.932 37.328 129.767 37.328C130.919 37.328 132.135 37.1147 133.415 36.688V41.616C131.751 42.2987 129.724 42.64 127.335 42.64ZM153.279 42.64C147.817 42.64 143.807 41.2747 141.247 38.544C138.729 35.8133 137.471 31.9093 137.471 26.832C137.471 21.7547 138.751 17.8507 141.311 15.12C143.871 12.3893 147.86 11.024 153.279 11.024C158.74 11.024 162.751 12.3893 165.311 15.12C167.871 17.8507 169.151 21.7547 169.151 26.832C169.151 31.9093 167.871 35.8133 165.311 38.544C162.793 41.2747 158.783 42.64 153.279 42.64ZM153.279 36.752C156.479 36.752 158.74 35.984 160.063 34.448C161.428 32.8693 162.111 30.3307 162.111 26.832C162.111 23.3333 161.428 20.816 160.063 19.28C158.74 17.744 156.479 16.976 153.279 16.976C150.121 16.976 147.86 17.744 146.495 19.28C145.172 20.816 144.511 23.3333 144.511 26.832C144.511 30.3307 145.172 32.8693 146.495 34.448C147.86 35.984 150.121 36.752 153.279 36.752ZM188.418 42.64C183.085 42.64 178.797 41.9573 175.554 40.592V34.448C177.389 35.1307 179.352 35.6853 181.442 36.112C183.576 36.5387 185.688 36.752 187.778 36.752C191.064 36.752 193.517 36.368 195.138 35.6C196.802 34.832 197.634 33.296 197.634 30.992C197.634 29.584 197.293 28.4533 196.61 27.6C195.928 26.7467 194.797 26.0213 193.218 25.424C191.64 24.784 189.464 24.1227 186.69 23.44C182.253 22.288 179.138 20.8373 177.346 19.088C175.554 17.296 174.658 14.8427 174.658 11.728C174.658 8.10133 175.981 5.264 178.626 3.216C181.272 1.168 185.218 0.143997 190.466 0.143997C192.856 0.143997 195.096 0.314664 197.186 0.655998C199.32 0.997332 200.984 1.38133 202.178 1.808V7.952C198.936 6.71466 195.352 6.096 191.426 6.096C188.354 6.096 185.965 6.50133 184.258 7.312C182.552 8.12267 181.698 9.59467 181.698 11.728C181.698 12.9653 181.997 13.968 182.594 14.736C183.192 15.504 184.216 16.1653 185.666 16.72C187.16 17.2747 189.208 17.8933 191.81 18.576C195.181 19.4293 197.784 20.4533 199.618 21.648C201.496 22.8 202.797 24.1653 203.522 25.744C204.29 27.28 204.674 29.0293 204.674 30.992C204.674 34.6187 203.33 37.4773 200.642 39.568C197.954 41.616 193.88 42.64 188.418 42.64ZM225.966 42.64C220.505 42.64 216.494 41.2747 213.934 38.544C211.417 35.8133 210.158 31.9093 210.158 26.832C210.158 21.7547 211.438 17.8507 213.998 15.12C216.558 12.3893 220.548 11.024 225.966 11.024C231.428 11.024 235.438 12.3893 237.998 15.12C240.558 17.8507 241.838 21.7547 241.838 26.832C241.838 31.9093 240.558 35.8133 237.998 38.544C235.481 41.2747 231.47 42.64 225.966 42.64ZM225.966 36.752C229.166 36.752 231.428 35.984 232.75 34.448C234.116 32.8693 234.798 30.3307 234.798 26.832C234.798 23.3333 234.116 20.816 232.75 19.28C231.428 17.744 229.166 16.976 225.966 16.976C222.809 16.976 220.548 17.744 219.182 19.28C217.86 20.816 217.198 23.3333 217.198 26.832C217.198 30.3307 217.86 32.8693 219.182 34.448C220.548 35.984 222.809 36.752 225.966 36.752ZM248.626 55.824V11.664H254.642L255.026 14.672C256.391 13.4347 257.884 12.5173 259.506 11.92C261.127 11.3227 263.047 11.024 265.266 11.024C269.618 11.024 273.01 12.2187 275.442 14.608C277.874 16.9547 279.09 20.8587 279.09 26.32C279.09 31.7813 277.831 35.8773 275.314 38.608C272.796 41.296 269.362 42.64 265.01 42.64C261.34 42.64 258.204 41.7867 255.602 40.08V55.824H248.626ZM263.218 37.392C269.106 37.392 272.05 33.68 272.05 26.256C272.05 22.672 271.388 20.1333 270.066 18.64C268.743 17.104 266.524 16.336 263.41 16.336C260.295 16.336 257.692 17.4027 255.602 19.536V34.704C256.583 35.5147 257.671 36.176 258.866 36.688C260.103 37.1573 261.554 37.392 263.218 37.392ZM295.348 42.64C293.428 42.64 291.636 42.2987 289.972 41.616C288.35 40.9333 287.049 39.9093 286.068 38.544C285.086 37.136 284.596 35.408 284.596 33.36C284.596 30.4587 285.577 28.1333 287.54 26.384C289.545 24.592 292.617 23.696 296.756 23.696H306.484V22.352C306.484 20.9013 306.249 19.7493 305.78 18.896C305.353 18.0427 304.542 17.424 303.348 17.04C302.196 16.656 300.489 16.464 298.228 16.464C294.644 16.464 291.294 16.9973 288.18 18.064V12.88C289.545 12.3253 291.209 11.8773 293.172 11.536C295.134 11.1947 297.246 11.024 299.508 11.024C303.945 11.024 307.316 11.92 309.62 13.712C311.966 15.504 313.14 18.4267 313.14 22.48V42H307.188L306.74 38.928C305.502 40.1227 303.966 41.04 302.132 41.68C300.34 42.32 298.078 42.64 295.348 42.64ZM297.204 37.648C299.294 37.648 301.108 37.3067 302.644 36.624C304.222 35.8987 305.502 34.9387 306.484 33.744V28.432H296.884C294.836 28.432 293.342 28.8373 292.404 29.648C291.508 30.416 291.06 31.6107 291.06 33.232C291.06 34.8107 291.593 35.9413 292.66 36.624C293.726 37.3067 295.241 37.648 297.204 37.648Z" fill="#2F89C0"/>
<path d="M5.63625 78V73.22L1.01625 65.12H3.27625L6.71625 71.38L10.1562 65.12H12.4163L7.79625 73.22V78H5.63625ZM18.542 78.2C16.502 78.2 14.9754 77.6667 13.962 76.6C12.9487 75.52 12.442 73.8533 12.442 71.6C12.442 69.2533 12.9487 67.5533 13.962 66.5C14.9754 65.4467 16.502 64.92 18.542 64.92C20.5954 64.92 22.122 65.4467 23.122 66.5C24.1354 67.5533 24.642 69.2533 24.642 71.6C24.642 73.8533 24.1354 75.52 23.122 76.6C22.122 77.6667 20.5954 78.2 18.542 78.2ZM18.542 76.36C19.8887 76.36 20.8754 75.9933 21.502 75.26C22.142 74.5133 22.462 73.2933 22.462 71.6C22.462 69.8133 22.142 68.5667 21.502 67.86C20.8754 67.14 19.8887 66.78 18.542 66.78C17.2087 66.78 16.222 67.14 15.582 67.86C14.9554 68.5667 14.642 69.8133 14.642 71.6C14.642 73.2933 14.9554 74.5133 15.582 75.26C16.222 75.9933 17.2087 76.36 18.542 76.36ZM32.2678 78.2C30.4945 78.2 29.1145 77.7733 28.1278 76.92C27.1545 76.0667 26.6678 74.8333 26.6678 73.22V65.12H28.8478V73.14C28.8478 74.22 29.1411 75.0267 29.7278 75.56C30.3278 76.0933 31.1745 76.36 32.2678 76.36C33.3478 76.36 34.1811 76.0933 34.7678 75.56C35.3678 75.0267 35.6678 74.22 35.6678 73.14V65.12H37.8278V73.22C37.8278 74.8333 37.3411 76.0667 36.3678 76.92C35.3945 77.7733 34.0278 78.2 32.2678 78.2ZM40.2444 78V65.12H46.1644C47.6044 65.12 48.651 65.4933 49.3044 66.24C49.971 66.9733 50.3044 67.9733 50.3044 69.24C50.3044 70.1467 50.0777 70.92 49.6244 71.56C49.171 72.2 48.5177 72.6467 47.6644 72.9C47.9044 73.0733 48.091 73.26 48.2244 73.46C48.3577 73.66 48.491 73.9267 48.6244 74.26L50.2444 78H48.0044L46.4244 74.4C46.2777 74.0533 46.0977 73.8067 45.8844 73.66C45.6844 73.5133 45.3377 73.44 44.8444 73.44H42.4244V78H40.2444ZM42.4244 71.68H45.5844C46.371 71.68 46.991 71.4867 47.4444 71.1C47.8977 70.7133 48.1244 70.0933 48.1244 69.24C48.1244 67.6267 47.3444 66.82 45.7844 66.82H42.4244V71.68ZM57.0608 78V65.12H58.9808L65.7008 74.6V65.12H67.8608V78H65.9408L59.2408 68.54V78H57.0608ZM76.1006 78.2C74.0606 78.2 72.534 77.6667 71.5206 76.6C70.5073 75.52 70.0006 73.8533 70.0006 71.6C70.0006 69.2533 70.5073 67.5533 71.5206 66.5C72.534 65.4467 74.0606 64.92 76.1006 64.92C78.154 64.92 79.6806 65.4467 80.6806 66.5C81.694 67.5533 82.2006 69.2533 82.2006 71.6C82.2006 73.8533 81.694 75.52 80.6806 76.6C79.6806 77.6667 78.154 78.2 76.1006 78.2ZM76.1006 76.36C77.4473 76.36 78.434 75.9933 79.0606 75.26C79.7006 74.5133 80.0206 73.2933 80.0206 71.6C80.0206 69.8133 79.7006 68.5667 79.0606 67.86C78.434 67.14 77.4473 66.78 76.1006 66.78C74.7673 66.78 73.7806 67.14 73.1406 67.86C72.514 68.5667 72.2006 69.8133 72.2006 71.6C72.2006 73.2933 72.514 74.5133 73.1406 75.26C73.7806 75.9933 74.7673 76.36 76.1006 76.36ZM83.9264 78V76.3H85.7664V78H83.9264ZM89.5806 78V67.04L87.5006 67.4V65.58L91.7406 64.92V78H89.5806ZM102.237 78V66.82H98.1167V65.12H108.517V66.82H104.417V78H102.237ZM110.264 78V65.12H116.184C117.624 65.12 118.671 65.4933 119.324 66.24C119.991 66.9733 120.324 67.9733 120.324 69.24C120.324 70.1467 120.097 70.92 119.644 71.56C119.191 72.2 118.537 72.6467 117.684 72.9C117.924 73.0733 118.111 73.26 118.244 73.46C118.377 73.66 118.511 73.9267 118.644 74.26L120.264 78H118.024L116.444 74.4C116.297 74.0533 116.117 73.8067 115.904 73.66C115.704 73.5133 115.357 73.44 114.864 73.44H112.444V78H110.264ZM112.444 71.68H115.604C116.391 71.68 117.011 71.4867 117.464 71.1C117.917 70.7133 118.144 70.0933 118.144 69.24C118.144 67.6267 117.364 66.82 115.804 66.82H112.444V71.68ZM127.971 78.2C126.198 78.2 124.818 77.7733 123.831 76.92C122.858 76.0667 122.371 74.8333 122.371 73.22V65.12H124.551V73.14C124.551 74.22 124.844 75.0267 125.431 75.56C126.031 76.0933 126.878 76.36 127.971 76.36C129.051 76.36 129.884 76.0933 130.471 75.56C131.071 75.0267 131.371 74.22 131.371 73.14V65.12H133.531V73.22C133.531 74.8333 133.044 76.0667 132.071 76.92C131.098 77.7733 129.731 78.2 127.971 78.2ZM139.848 78.2C138.181 78.2 136.841 77.9867 135.828 77.56V75.64C136.401 75.8533 137.014 76.0267 137.668 76.16C138.334 76.2933 138.994 76.36 139.648 76.36C140.674 76.36 141.441 76.24 141.948 76C142.468 75.76 142.728 75.28 142.728 74.56C142.728 74.12 142.621 73.7667 142.408 73.5C142.194 73.2333 141.841 73.0067 141.348 72.82C140.854 72.62 140.174 72.4133 139.308 72.2C137.921 71.84 136.948 71.3867 136.388 70.84C135.828 70.28 135.548 69.5133 135.548 68.54C135.548 67.4067 135.961 66.52 136.788 65.88C137.614 65.24 138.848 64.92 140.488 64.92C141.234 64.92 141.934 64.9733 142.588 65.08C143.254 65.1867 143.774 65.3067 144.148 65.44V67.36C143.134 66.9733 142.014 66.78 140.788 66.78C139.828 66.78 139.081 66.9067 138.548 67.16C138.014 67.4133 137.748 67.8733 137.748 68.54C137.748 68.9267 137.841 69.24 138.028 69.48C138.214 69.72 138.534 69.9267 138.988 70.1C139.454 70.2733 140.094 70.4667 140.908 70.68C141.961 70.9467 142.774 71.2667 143.348 71.64C143.934 72 144.341 72.4267 144.568 72.92C144.808 73.4 144.928 73.9467 144.928 74.56C144.928 75.6933 144.508 76.5867 143.668 77.24C142.828 77.88 141.554 78.2 139.848 78.2ZM149.58 78V66.82H145.46V65.12H155.86V66.82H151.76V78H149.58ZM157.608 78V65.12H166.588V66.82H159.788V70.72H165.848V72.4H159.788V76.32H166.588V78H157.608ZM168.604 78V65.12H173.824C175.73 65.12 177.144 65.6267 178.064 66.64C178.984 67.64 179.444 69.3067 179.444 71.64C179.444 73.84 178.99 75.4533 178.084 76.48C177.177 77.4933 175.757 78 173.824 78H168.604ZM170.784 76.32H173.484C174.324 76.32 175.024 76.2 175.584 75.96C176.144 75.7067 176.564 75.24 176.844 74.56C177.124 73.88 177.264 72.9067 177.264 71.64C177.264 70.3733 177.137 69.3933 176.884 68.7C176.63 68.0067 176.224 67.52 175.664 67.24C175.117 66.96 174.39 66.82 173.484 66.82H170.784V76.32ZM192.241 78.2C190.121 78.2 188.515 77.62 187.421 76.46C186.341 75.3 185.801 73.7333 185.801 71.76C185.801 70.3467 186.028 69.1333 186.481 68.12C186.948 67.0933 187.655 66.3067 188.601 65.76C189.548 65.2 190.755 64.92 192.221 64.92C192.968 64.92 193.648 64.98 194.261 65.1C194.888 65.2067 195.468 65.3533 196.001 65.54V67.44C195.468 67.2267 194.895 67.0667 194.281 66.96C193.681 66.84 193.048 66.78 192.381 66.78C190.781 66.78 189.648 67.2067 188.981 68.06C188.328 68.9133 188.001 70.1467 188.001 71.76C188.001 73.2667 188.361 74.4133 189.081 75.2C189.801 75.9733 190.915 76.36 192.421 76.36C193.035 76.36 193.648 76.3133 194.261 76.22C194.888 76.1133 195.475 75.9533 196.021 75.74V77.66C195.488 77.8333 194.908 77.9667 194.281 78.06C193.668 78.1533 192.988 78.2 192.241 78.2ZM196.954 78L201.874 65.12H204.314L209.194 78H206.954L205.674 74.68H200.494L199.214 78H196.954ZM200.834 73H205.314L203.074 67.1L200.834 73ZM211.338 78V65.12H217.258C218.698 65.12 219.745 65.4933 220.398 66.24C221.065 66.9733 221.398 67.9733 221.398 69.24C221.398 70.1467 221.171 70.92 220.718 71.56C220.265 72.2 219.611 72.6467 218.758 72.9C218.998 73.0733 219.185 73.26 219.318 73.46C219.451 73.66 219.585 73.9267 219.718 74.26L221.338 78H219.098L217.518 74.4C217.371 74.0533 217.191 73.8067 216.978 73.66C216.778 73.5133 216.431 73.44 215.938 73.44H213.518V78H211.338ZM213.518 71.68H216.678C217.465 71.68 218.085 71.4867 218.538 71.1C218.991 70.7133 219.218 70.0933 219.218 69.24C219.218 67.6267 218.438 66.82 216.878 66.82H213.518V71.68ZM228.155 78V65.12H233.375C235.281 65.12 236.695 65.6267 237.615 66.64C238.535 67.64 238.995 69.3067 238.995 71.64C238.995 73.84 238.541 75.4533 237.635 76.48C236.728 77.4933 235.308 78 233.375 78H228.155ZM230.335 76.32H233.035C233.875 76.32 234.575 76.2 235.135 75.96C235.695 75.7067 236.115 75.24 236.395 74.56C236.675 73.88 236.815 72.9067 236.815 71.64C236.815 70.3733 236.688 69.3933 236.435 68.7C236.181 68.0067 235.775 67.52 235.215 67.24C234.668 66.96 233.941 66.82 233.035 66.82H230.335V76.32ZM241.143 78V65.12H250.123V66.82H243.323V70.72H249.383V72.4H243.323V76.32H250.123V78H241.143ZM251.759 78L256.679 65.12H259.119L263.999 78H261.759L260.479 74.68H255.299L254.019 78H251.759ZM255.639 73H260.119L257.879 67.1L255.639 73ZM266.143 78V65.12H268.323V76.32H274.923V78H266.143ZM276.651 78V65.12H285.631V66.82H278.831V70.72H284.891V72.4H278.831V76.32H285.631V78H276.651ZM287.647 78V65.12H293.567C295.007 65.12 296.053 65.4933 296.707 66.24C297.373 66.9733 297.707 67.9733 297.707 69.24C297.707 70.1467 297.48 70.92 297.027 71.56C296.573 72.2 295.92 72.6467 295.067 72.9C295.307 73.0733 295.493 73.26 295.627 73.46C295.76 73.66 295.893 73.9267 296.027 74.26L297.647 78H295.407L293.827 74.4C293.68 74.0533 293.5 73.8067 293.287 73.66C293.087 73.5133 292.74 73.44 292.247 73.44H289.827V78H287.647ZM289.827 71.68H292.987C293.773 71.68 294.393 71.4867 294.847 71.1C295.3 70.7133 295.527 70.0933 295.527 69.24C295.527 67.6267 294.747 66.82 293.187 66.82H289.827V71.68ZM304.463 78V65.12H306.643V78H304.463ZM309.17 78V65.12H311.09L317.81 74.6V65.12H319.97V78H318.05L311.35 68.54V78H309.17ZM327.119 78V65.12H332.339C334.246 65.12 335.659 65.6267 336.579 66.64C337.499 67.64 337.959 69.3067 337.959 71.64C337.959 73.84 337.506 75.4533 336.599 76.48C335.693 77.4933 334.273 78 332.339 78H327.119ZM329.299 76.32H331.999C332.839 76.32 333.539 76.2 334.099 75.96C334.659 75.7067 335.079 75.24 335.359 74.56C335.639 73.88 335.779 72.9067 335.779 71.64C335.779 70.3733 335.653 69.3933 335.399 68.7C335.146 68.0067 334.739 67.52 334.179 67.24C333.633 66.96 332.906 66.82 331.999 66.82H329.299V76.32ZM340.108 78V65.12H349.088V66.82H342.288V70.72H348.348V72.4H342.288V76.32H349.088V78H340.108Z" fill="#828282"/>
</svg>
