<svg width="75" height="75" viewBox="0 0 75 75" fill="none" xmlns="http://www.w3.org/2000/svg">
<rect width="75" height="75" rx="37.5" fill="#6D3350"/>
<path fill-rule="evenodd" clip-rule="evenodd" d="M48.7505 30C48.7505 36.2132 43.7137 41.25 37.5005 41.25C31.2873 41.25 26.2505 36.2132 26.2505 30C26.2505 23.7868 31.2873 18.75 37.5005 18.75C43.7137 18.75 48.7505 23.7868 48.7505 30ZM45.0005 30C45.0005 34.1421 41.6426 37.5 37.5005 37.5C33.3583 37.5 30.0005 34.1421 30.0005 30C30.0005 25.8579 33.3583 22.5 37.5005 22.5C41.6426 22.5 45.0005 25.8579 45.0005 30Z" fill="#FFD8E6"/>
<path d="M37.5005 46.875C25.361 46.875 15.0178 54.0533 11.0779 64.1101C12.0377 65.0632 13.0488 65.9647 14.1066 66.8101C17.0405 57.5769 26.2443 50.625 37.5005 50.625C48.7566 50.625 57.9604 57.5769 60.8943 66.8101C61.9522 65.9647 62.9632 65.0632 63.9231 64.1101C59.9831 54.0533 49.6399 46.875 37.5005 46.875Z" fill="#FFD8E6"/>
</svg>
