<svg width="15" height="15" viewBox="0 0 15 15" fill="none" xmlns="http://www.w3.org/2000/svg">
<path d="M5.15155 1.89369C5.48642 1.97741 5.69002 2.31674 5.6063 2.65161L3.1063 12.6516C3.02259 12.9865 2.68325 13.1901 2.34838 13.1063C2.01351 13.0227 1.80991 12.6833 1.89363 12.3485L4.39363 2.34844C4.47735 2.01357 4.81668 1.80997 5.15155 1.89369ZM10.6063 2.34844L13.1063 12.3485C13.19 12.6833 12.9864 13.0227 12.6515 13.1063C12.3167 13.1901 11.9773 12.9865 11.8937 12.6516L9.39366 2.65161C9.30991 2.31674 9.51353 1.97741 9.84841 1.89369C10.1833 1.80997 10.5226 2.01357 10.6063 2.34844ZM7.49997 10.625C7.8205 10.625 8.08466 10.8663 8.12077 11.1771L8.12497 11.25V12.5C8.12497 12.8452 7.84516 13.125 7.49997 13.125C7.17944 13.125 6.91528 12.8838 6.87917 12.5729L6.87497 12.5V11.25C6.87497 10.9048 7.15478 10.625 7.49997 10.625ZM7.49997 6.25003C7.84516 6.25003 8.12497 6.52984 8.12497 6.87503V8.12503C8.12497 8.47022 7.84516 8.75003 7.49997 8.75003C7.15478 8.75003 6.87497 8.47022 6.87497 8.12503V6.87503C6.87497 6.52984 7.15478 6.25003 7.49997 6.25003ZM7.49997 1.87502C7.8205 1.87502 8.08466 2.1163 8.12077 2.42714L8.12497 2.50002V3.75002C8.12497 4.09521 7.84516 4.37502 7.49997 4.37502C7.17944 4.37502 6.91528 4.13375 6.87917 3.82291L6.87497 3.75002V2.50002C6.87497 2.15485 7.15478 1.87502 7.49997 1.87502Z" fill="#2F89C0"/>
</svg>
