<svg width="30" height="30" viewBox="0 0 30 30" fill="none" xmlns="http://www.w3.org/2000/svg">
<path d="M16.1125 7.35001H6.38748C4.24998 7.35001 2.5 9.09999 2.5 11.2375V25.4375M16.1125 7.35001C18.25 7.35001 20 9.09999 19.9875 11.2375V25.4375C19.9875 27.25 18.6875 28.025 17.1 27.1375L12.1875 24.4C11.675 24.1125 10.825 24.1125 10.3 24.4M16.1125 7.35001C18.25 7.35001 20 9.09999 20 11.2375M16.1125 7.35001H10V6.38748C10 4.24998 11.75 2.5 13.8875 2.5H23.6125C25.75 2.5 27.5 4.24998 27.5 6.38748V20.5875C27.5 22.4 26.2 23.1625 24.6125 22.2875L20 19.7125V11.2375M2.5 25.4375C2.5 27.25 3.8 28.025 5.3875 27.1375M2.5 25.4375C2.5 27.25 3.8 28.0125 5.3875 27.1375M5.3875 27.1375L10.3 24.4M10.3 24.4C10.825 24.1125 11.675 24.1125 12.2 24.4L17.1125 27.1375C18.7 28.0125 20 27.25 20 25.4375V11.2375" stroke="white" stroke-width="1.5" stroke-linecap="round" stroke-linejoin="round"/>
</svg>
