<svg width="15" height="15" viewBox="0 0 15 15" fill="none" xmlns="http://www.w3.org/2000/svg">
<path d="M4.75 5.375V9.125" stroke="#2F89C0" stroke-width="1.26" stroke-linecap="round"/>
<path d="M7.25 5.375V9.125" stroke="#2F89C0" stroke-width="1.26" stroke-linecap="round"/>
<path d="M4.75 7.25H7.875C8.45744 7.25 8.74862 7.25 8.97837 7.15488C9.28462 7.028 9.528 6.78462 9.65488 6.47837C9.75 6.24862 9.75 5.95742 9.75 5.375" stroke="#2F89C0" stroke-width="1.26" stroke-linecap="round"/>
<path d="M4.125 1.83614C5.04429 1.30436 6.11162 1 7.25 1C10.7017 1 13.5 3.79822 13.5 7.25C13.5 10.7017 10.7017 13.5 7.25 13.5C3.79822 13.5 1 10.7017 1 7.25C1 6.11162 1.30436 5.04429 1.83614 4.125" stroke="#2F89C0" stroke-width="1.26" stroke-linecap="round"/>
</svg>
